<?xml version="1.0" encoding="utf-8"?>
<!-- Generator: Adobe Illustrator 27.0.0, SVG Export Plug-In . SVG Version: 6.00 Build 0)  -->
<svg version="1.1" id="Layer_1" xmlns="http://www.w3.org/2000/svg" xmlns:xlink="http://www.w3.org/1999/xlink" x="0px" y="0px"
	 viewBox="0 0 800 800" style="enable-background:new 0 0 800 800;" xml:space="preserve">
<style type="text/css">
	.st0{fill-rule:evenodd;clip-rule:evenodd;fill:#2EB4FF;}
	.st1{fill:#2EB4FF;}
	.st2{font-family:'Lato-Bold';}
	.st3{font-size:84.9515px;}
</style>
<path class="st0" d="M603.61,304.56c11.66-0.01,21.12,9.44,21.12,21.1c0.01,11.66-9.44,21.12-21.1,21.12
	c-11.66,0.01-21.12-9.44-21.12-21.1c0-5.6,2.22-10.97,6.18-14.93C592.64,306.79,598.01,304.56,603.61,304.56z M603.35,350.11h62.23
	c5.79,0.01,10.47,4.7,10.49,10.49v45.6c0.01,5.8-4.68,10.51-10.49,10.53h-19.23l13.96,22.39h-13.02l-15.21-20.51l-15.39,20.46
	h-13.17l13.87-22.34h-14.05c-5.8-0.02-10.49-4.73-10.49-10.53v-45.6C592.87,354.81,597.56,350.13,603.35,350.11z M648.32,385.69
	c2.2-1.42,2.19-2.99,0-4.25l-22.7-13.02c-1.8-1.12-3.66-0.46-3.55,1.88l0.01,26.31c0.15,2.53,1.6,3.23,3.73,2.06l22.49-13.02
	L648.32,385.69z M682.01,400.16v-33.69l28.4-16.77v67.65L682.01,400.16z M654.25,293.65c14.66,0.01,26.54,11.9,26.53,26.56
	s-11.9,26.54-26.56,26.53s-26.54-11.9-26.53-26.56c0-7.04,2.8-13.78,7.77-18.76C640.44,296.44,647.2,293.64,654.25,293.65z"/>
<text transform="matrix(1 0 0 1 63.2737 417.0946)" class="st1 st2 st3">MOVIE LENS</text>
</svg>
